<svg width="18" height="18" viewBox="0 0 18 18" fill="none" xmlns="http://www.w3.org/2000/svg">
<g clip-path="url(#clip0_2134_90)">
<path fill-rule="evenodd" clip-rule="evenodd" d="M9.08166 8.50124C9.65341 8.56283 10.2252 8.62443 10.9281 8.58392L10.9283 8.58373C12.8331 8.47385 13.9868 7.46155 13.9049 5.94842C13.8216 4.4089 12.2864 3.46056 10.7504 3.54919C8.24745 3.69381 6.4068 5.96891 6.19921 8.56968C6.53912 8.48876 6.8855 8.43821 7.23431 8.41862C7.93765 8.378 8.50965 8.43962 9.08166 8.50124ZM4.13016 11.6584C4.21002 13.099 5.68053 13.9868 7.15199 13.9037C9.54993 13.7686 11.3132 11.6392 11.5117 9.20527C11.1859 9.28104 10.8541 9.32834 10.5201 9.34665C9.8465 9.38471 9.29858 9.32703 8.75064 9.26935C8.20293 9.21169 7.6552 9.15403 6.98187 9.19198C5.15712 9.29484 4.05163 10.2422 4.13016 11.6584ZM2.78254 -1.29064C4.57432 -2.39975 6.68694 -3.03992 8.94912 -3.03985V-3.04004C6.68695 -3.04004 4.57432 -2.3998 2.78254 -1.29064ZM2.78254 -1.29064C-0.557936 0.777104 -2.7832 4.47476 -2.7832 8.69228C-2.7832 4.47487 -0.557921 0.777191 2.78254 -1.29064Z" fill="white"/>
</g>
<defs>
<clipPath id="clip0_2134_90">
<rect width="18" height="18" fill="white"/>
</clipPath>
</defs>
</svg>
