<svg width="19" height="18" viewBox="0 0 19 18" fill="none" xmlns="http://www.w3.org/2000/svg">
    <path fill-rule="evenodd" clip-rule="evenodd" d="M8.3329 9.81802C6.52547 9.81802 5.06019 8.35284 5.06019 6.5453C5.06019 4.73777 6.52547 3.27259 8.3329 3.27259C10.1404 3.27259 11.6056 4.73777 11.6056 6.5453C11.6056 8.35284 10.1404 9.81802 8.3329 9.81802ZM8.3329 1.63623C11.0441 1.63623 13.242 3.83411 13.242 6.5453C13.242 9.2565 11.0441 11.4544 8.3329 11.4544C5.62171 11.4544 3.42383 9.2565 3.42383 6.5453C3.42383 3.83411 5.62171 1.63623 8.3329 1.63623ZM13.0024 11.694C13.3219 12.0135 13.3219 12.5315 13.0024 12.851L9.72956 16.1238C9.41002 16.4434 8.89204 16.4434 8.5725 16.1238C8.25297 15.8043 8.25297 15.2863 8.5725 14.9668L11.8453 11.694C12.1649 11.3744 12.6828 11.3744 13.0024 11.694ZM14.8783 2.45441C14.8783 2.90634 14.5121 3.27259 14.0603 3.27259C13.6083 3.27259 13.2421 2.90634 13.2421 2.45441C13.2421 2.00248 13.6083 1.63623 14.0603 1.63623C14.5121 1.63623 14.8783 2.00248 14.8783 2.45441Z" fill="white"/>
    </svg>
    