<svg width="29" height="28" viewBox="0 0 29 28" fill="none" xmlns="http://www.w3.org/2000/svg">
<rect x="0.666504" width="28" height="28" rx="6" fill="black"/>
<path fill-rule="evenodd" clip-rule="evenodd" d="M13.6664 14.818C11.859 14.818 10.3937 13.3528 10.3937 11.5453C10.3937 9.73777 11.859 8.27259 13.6664 8.27259C15.4739 8.27259 16.9391 9.73777 16.9391 11.5453C16.9391 13.3528 15.4739 14.818 13.6664 14.818ZM13.6664 6.63623C16.3776 6.63623 18.5755 8.83411 18.5755 11.5453C18.5755 14.2565 16.3776 16.4544 13.6664 16.4544C10.9552 16.4544 8.75732 14.2565 8.75732 11.5453C8.75732 8.83411 10.9552 6.63623 13.6664 6.63623ZM18.3359 16.694C18.6554 17.0135 18.6554 17.5315 18.3359 17.851L15.0631 21.1238C14.7435 21.4434 14.2255 21.4434 13.906 21.1238C13.5865 20.8043 13.5865 20.2863 13.906 19.9668L17.1788 16.694C17.4984 16.3744 18.0163 16.3744 18.3359 16.694ZM20.2118 7.45441C20.2118 7.90634 19.8456 8.27259 19.3938 8.27259C18.9418 8.27259 18.5756 7.90634 18.5756 7.45441C18.5756 7.00248 18.9418 6.63623 19.3938 6.63623C19.8456 6.63623 20.2118 7.00248 20.2118 7.45441Z" fill="white"/>
</svg>
