<svg width="128" height="128" viewBox="0 0 128 128" fill="none" xmlns="http://www.w3.org/2000/svg">
<g clip-path="url(#clip0_96_115)">
<path d="M64 -0.000976562C112 -0.000976562 128 15.999 128 63.999C128 111.999 112 127.999 64 127.999C16.0002 127.999 0.000108533 111.999 0 63.999C0 15.999 16 -0.000976562 64 -0.000976562ZM52.6113 66.0439C52.6113 76.789 43.9013 85.499 33.1562 85.499V96.8613C50.1766 96.8613 63.9736 83.0643 63.9736 66.0439H52.6113ZM70.25 66.0439C70.2501 83.0642 84.0471 96.8613 101.067 96.8613V85.499C90.3224 85.499 81.6124 76.7889 81.6123 66.0439H70.25ZM36.8877 44.7314C36.8793 44.7567 36.8707 44.7839 36.8623 44.8105C36.8539 44.8371 36.8453 44.8635 36.8369 44.8887C36.4044 46.1133 35.8484 47.2991 35.1855 48.417C33.7878 50.7905 32.3466 52.5277 30.9102 54.2598L30.8027 54.3896C29.6511 55.7716 28.5051 57.148 27.376 58.8389C27.0501 59.322 26.7353 59.8279 26.415 60.3672C25.7521 61.4852 25.2075 62.6652 24.7861 63.8955C22.9939 69.0699 24.2804 73.6044 28.5166 76.1045C33.7807 79.2165 40.3255 76.1881 43.4492 70.8623C48.5394 62.199 45.0615 50.9788 36.9375 44.5684C36.9207 44.6132 36.9045 44.6698 36.8877 44.7314ZM52.6055 31.6436V66.0381H63.9678V31.6436H52.6055ZM91.75 31.5625C87.2385 29.5961 82.8115 31.2093 79.6709 35.6982H79.665C78.9179 36.76 78.2776 37.8893 77.7607 39.0859C77.5136 39.6589 77.2826 40.2148 77.0859 40.7598C76.378 42.6644 75.9341 44.4009 75.4902 46.1426L75.4707 46.2217C74.9045 48.4257 74.3366 50.6341 73.2207 53.1934C72.7038 54.3843 72.0687 55.5305 71.3271 56.6035C71.2992 56.6483 71.266 56.6932 71.2324 56.7324C71.2103 56.7656 71.1853 56.7991 71.1631 56.8291C71.1515 56.8447 71.1405 56.8596 71.1309 56.873C81.0864 59.699 92.2163 55.9456 96.2559 46.7373C98.7389 41.0854 97.3569 34.0064 91.75 31.5625Z" fill="black"/>
</g>
<defs>
<clipPath id="clip0_96_115">
<rect width="128" height="128" fill="white"/>
</clipPath>
</defs>
</svg>
