<?xml version="1.0" encoding="UTF-8"?>
<svg id="Layer_1" data-name="Layer 1" xmlns="http://www.w3.org/2000/svg" xmlns:xlink="http://www.w3.org/1999/xlink" viewBox="0 0 34 34">
  <defs>
    <style>
      .cls-1 {
        fill: none;
      }

      .cls-2 {
        clip-path: url(#clippath);
      }
    </style>
    <clipPath id="clippath">
      <rect class="cls-1" x="4.86" y="4.86" width="24.28" height="24.28"/>
    </clipPath>
  </defs>
  <g class="cls-2">
    <path d="M17,4.86c9.11,0,12.14,3.04,12.14,12.14s-3.04,12.14-12.14,12.14-12.14-3.04-12.14-12.14c0-9.11,3.04-12.14,12.14-12.14ZM14.84,17.39c0,2.04-1.65,3.69-3.69,3.69v2.16c3.23,0,5.85-2.62,5.85-5.85h-2.16ZM18.19,17.39c0,3.23,2.62,5.85,5.85,5.85v-2.16c-2.04,0-3.69-1.65-3.69-3.69h-2.16ZM11.86,13.34s0,0,0,.02,0,.01,0,.01c-.08.23-.19.46-.31.67-.27.45-.54.78-.81,1.11l-.02.02c-.22.26-.44.52-.65.84-.06.09-.12.19-.18.29-.13.21-.23.44-.31.67-.34.98-.1,1.84.71,2.32,1,.59,2.24.02,2.83-.99.97-1.64.31-3.77-1.24-4.99,0,0,0,.02,0,.03ZM14.84,10.86v6.53h2.16v-6.53h-2.16ZM22.26,10.85c-.86-.37-1.7-.07-2.29.78h0c-.14.2-.26.42-.36.64-.05.11-.09.21-.13.32-.13.36-.22.69-.3,1.02v.02c-.11.42-.22.84-.43,1.32-.1.23-.22.44-.36.65,0,0-.01.02-.02.02,0,0,0,.01-.01.02,0,0,0,0,0,0,1.89.54,4-.18,4.77-1.92.47-1.07.21-2.42-.85-2.88Z"/>
  </g>
</svg>